<svg width="26" height="26" viewBox="0 0 26 26" fill="none" xmlns="http://www.w3.org/2000/svg">
<path fill-rule="evenodd" clip-rule="evenodd" d="M5.09766 0H20.9062C23.707 0 26 2.29297 26 5.09375V20.9062C26 23.707 23.707 26 20.9023 26H5.09766C2.29297 26 0 23.707 0 20.9062V5.09375C0 2.29297 2.29297 0 5.09766 0ZM19.2969 15.7344C19.2969 14.7773 19.0312 14.0156 18.5117 13.4492C17.9844 12.8828 17.2891 12.5117 16.418 12.3242V12.2539C17.0234 11.9961 17.4961 11.6055 17.8398 11.0625C18.1875 10.5273 18.3594 9.91406 18.3594 9.22656C18.3594 8.63281 18.2305 8.10938 17.9805 7.65234C17.7344 7.19922 17.3555 6.83594 16.8516 6.5625C16.3867 6.30859 15.8867 6.14453 15.3516 6.06641C14.8164 5.98828 14.0312 5.94922 12.9961 5.94922H7.9375V20.0547H13.6562C14.6367 20.0547 15.4414 19.9688 16.0742 19.7891C16.7148 19.6133 17.2969 19.3164 17.8281 18.9023C18.2773 18.5508 18.6328 18.1172 18.8984 17.5859C19.1641 17.0547 19.2969 16.4375 19.2969 15.7344ZM14.7578 9.9375C14.7578 9.71094 14.6992 9.47656 14.582 9.23828C14.4688 9 14.2852 8.82422 14.0352 8.71484C13.8008 8.61328 13.5312 8.55859 13.2109 8.54688C12.8906 8.53906 12.4102 8.53516 11.7812 8.53516H11.5352V11.5195H11.9844C12.5859 11.5195 13.0117 11.5117 13.2539 11.5C13.4961 11.4844 13.7539 11.4219 14.0117 11.3047C14.2891 11.1719 14.4883 10.9844 14.5938 10.7539C14.7031 10.5195 14.7578 10.2461 14.7578 9.9375ZM15.6445 15.6719C15.6445 15.2344 15.5625 14.8945 15.3828 14.6484C15.2031 14.3984 14.9375 14.2148 14.5859 14.0898C14.3711 14.0039 14.0742 13.9609 13.6992 13.9492C13.3242 13.9414 12.8203 13.9375 12.1914 13.9375H11.5352V17.4688H11.7266C12.6484 17.4688 13.2852 17.4648 13.6367 17.4492C13.9922 17.4336 14.3555 17.3516 14.7188 17.1914C15.0391 17.0508 15.2734 16.8516 15.4258 16.5859C15.5703 16.3164 15.6445 16.0117 15.6445 15.6719Z" fill="white"/>
</svg>
